<svg width="171" height="41" xmlns="http://www.w3.org/2000/svg" fill="none">

 <g>
  <title>Layer 1</title>
  <path id="svg_1" fill="#f2f2f2" d="m106.813,5.52335l4.264,0l0,6.07925c0.214,-0.1692 0.442,-0.3274 0.684,-0.4738c0.371,-0.2256 0.798,-0.4206 1.28,-0.5841c0.461,-0.1569 0.989,-0.2897 1.583,-0.3969c0.587,-0.106 1.254,-0.18632 1.999,-0.23845c0.745,-0.05214 1.567,-0.07942 2.462,-0.07942c2.411,0 4.327,0.23787 5.75,0.71327l0.002,0c0.75,0.2516 1.399,0.6066 1.942,1.0624c0.549,0.4607 0.987,1.022 1.311,1.6813c0.31,0.6353 0.542,1.3952 0.695,2.2765c0.149,0.8614 0.224,1.8396 0.224,2.9317l0,10.6948l-4.279,0l0,-10.6948c0,-0.5939 -0.025,-1.1178 -0.073,-1.5719c-0.049,-0.4547 -0.121,-0.8512 -0.215,-1.1892c-0.087,-0.3081 -0.204,-0.5784 -0.348,-0.8062c-0.138,-0.216 -0.301,-0.396 -0.489,-0.5372l-0.003,0c-0.201,-0.1527 -0.446,-0.2824 -0.732,-0.3875l-0.001,0.002c-0.305,-0.1122 -0.655,-0.1973 -1.045,-0.2531l-0.005,0c-0.431,-0.064 -0.911,-0.1113 -1.44,-0.1419c-0.529,-0.0299 -1.136,-0.0452 -1.82,-0.0452c-1.027,0 -1.932,0.0407 -2.713,0.1218c-0.777,0.0807 -1.442,0.2014 -1.994,0.361l-0.002,0.0024c-0.532,0.1513 -0.98,0.3429 -1.344,0.5742c-0.342,0.2177 -0.61,0.4715 -0.804,0.7593l0,0.0024c-0.207,0.3076 -0.362,0.6592 -0.465,1.055l0.003,0.0006c-0.109,0.419 -0.163,0.8935 -0.163,1.4224l0,11.3259l-4.264,0l0,-23.66655z"/>
  <path id="svg_2" fill="#f2f2f2" d="m91.7924,29.5266c-0.995,0 -1.9347,-0.0264 -2.816,-0.0775c-0.8717,-0.0513 -1.6648,-0.1283 -2.3759,-0.2298c-0.7452,-0.106 -1.4222,-0.2699 -2.029,-0.49l0.0003,-0.0009c-0.6189,-0.2241 -1.1689,-0.5105 -1.6481,-0.8564c-0.4934,-0.3559 -0.9176,-0.7986 -1.2711,-1.3251c-0.3467,-0.5162 -0.6283,-1.1158 -0.8433,-1.7949l0.0016,-0.0002c-0.2132,-0.6646 -0.371,-1.4288 -0.4732,-2.2893c-0.2138,-1.7966 -0.22,-8.179 0,-9.9754c0.1038,-0.8462 0.2615,-1.5931 0.4741,-2.2389l0.0006,0.0002c0.2143,-0.66197 0.4962,-1.24657 0.8442,-1.75405c0.3543,-0.51758 0.7773,-0.95246 1.2671,-1.30594l0.0024,-0.00237c0.4799,-0.34325 1.0289,-0.62728 1.6454,-0.85099c0.607,-0.22015 1.2834,-0.38551 2.0265,-0.49395c0.7118,-0.10414 1.5088,-0.18392 2.3883,-0.23721c0.8775,-0.05326 1.8135,-0.08054 2.8061,-0.08054c1.1991,0 2.3051,0.03536 3.3158,0.10542c1.0126,0.07006 1.9153,0.17546 2.7078,0.31507c0.8305,0.14643 1.5641,0.37354 2.197,0.68082c0.651,0.3157 1.191,0.71564 1.617,1.19785l0.001,-0.0009c0.435,0.48918 0.759,1.10256 0.974,1.83879c0.204,0.7045 0.307,1.5148 0.307,2.4296l0,0.634l-4.142,0l0,-0.634c0,-0.4454 -0.0435,-0.8253 -0.1303,-1.1373c-0.0787,-0.2819 -0.1923,-0.5117 -0.3405,-0.6866l-0.0027,-0.0024c-0.1433,-0.1711 -0.3581,-0.31927 -0.6422,-0.44298c-0.3253,-0.1414 -0.7362,-0.24981 -1.2299,-0.32292c-0.54,-0.0799 -1.1925,-0.14076 -1.9553,-0.18026c-0.7508,-0.03925 -1.6436,-0.05932 -2.6767,-0.05932c-0.9312,0 -1.7439,0.01879 -2.4375,0.05541c-0.7081,0.0371 -1.3273,0.09366 -1.8549,0.16827l0,0.00039c-0.4943,0.07182 -0.9188,0.17484 -1.272,0.30877c-0.3264,0.12371 -0.5871,0.27164 -0.7819,0.44204c-0.1895,0.1684 -0.3482,0.381 -0.4749,0.6371c-0.1361,0.2747 -0.238,0.6048 -0.3052,0.9897l-0.0008,0c-0.0695,0.4173 -0.1227,0.9106 -0.1587,1.4786c-0.0804,1.2932 -0.0786,6.9718 0,8.2652c0.036,0.5891 0.0888,1.1001 0.1587,1.5312l0.0008,0c0.0666,0.3963 0.1703,0.7402 0.3103,1.0313l0,0.0024c0.1285,0.2681 0.2872,0.4876 0.4747,0.6587l0.0004,-0.0004c0.1956,0.1756 0.4555,0.3266 0.7794,0.4503c0.3495,0.1336 0.7703,0.2344 1.2616,0.3013c0.5279,0.0719 1.1529,0.1275 1.8734,0.1644c0.6903,0.0357 1.4993,0.0543 2.4266,0.0543c0.8097,0 1.5024,-0.0105 2.0816,-0.0303c0.616,-0.021 1.185,-0.0546 1.7038,-0.0986l0.0003,0.0019c0.4626,-0.0414 0.875,-0.1034 1.2372,-0.1852c0.3419,-0.0773 0.6283,-0.1707 0.858,-0.28l-0.0005,-0.0009c0.2083,-0.1001 0.3827,-0.2197 0.5211,-0.358c0.1328,-0.1324 0.2368,-0.2857 0.3103,-0.4586l0,-0.0027c0.0864,-0.2018 0.1524,-0.4421 0.1962,-0.7183l0,-0.0026c0.0463,-0.2893 0.0696,-0.6323 0.0696,-1.0247l0,-0.6342l4.142,0l0,0.6342c0,0.7195 -0.056,1.3784 -0.169,1.9754c-0.114,0.6114 -0.288,1.1511 -0.52,1.6177c-0.24,0.4805 -0.542,0.9013 -0.905,1.2607c-0.36,0.3577 -0.787,0.6587 -1.278,0.9016c-0.4658,0.231 -0.9934,0.4235 -1.58,0.5758c-0.5744,0.1488 -1.2063,0.2612 -1.8944,0.3351c-0.6658,0.074 -1.4038,0.1294 -2.2108,0.1657c-0.8248,0.0375 -1.6787,0.0554 -2.5624,0.0554z"/>
  <path id="svg_3" fill="#f2f2f2" d="m72.0229,5.52335l4.2688,0l0,3.91917l-4.2688,0l0,-3.91917z"/>
  <path id="svg_4" fill="#f2f2f2" d="m72.0229,11.1554l4.2688,0l0,18.0345l-4.2688,0l0,-18.0345z"/>
  <path id="svg_5" fill="#f2f2f2" d="m137.6,29.3376c-0.745,-0.118 -1.438,-0.3432 -2.037,-0.6377c-0.652,-0.3206 -1.203,-0.7255 -1.603,-1.1667c-0.404,-0.4456 -0.705,-1.0081 -0.902,-1.6843l0,-0.0024c-0.188,-0.6466 -0.282,-1.3922 -0.282,-2.2345c0,-0.8582 0.087,-1.6115 0.261,-2.2595c0.183,-0.6814 0.465,-1.248 0.845,-1.6994l0,-0.0023c0.378,-0.4466 0.862,-0.8138 1.449,-1.098c0.556,-0.2689 1.214,-0.4656 1.969,-0.5866l0,-0.0004c0.718,-0.1172 1.543,-0.2058 2.474,-0.2638c0.934,-0.0585 1.961,-0.0884 3.08,-0.0884c0.42,0 0.839,0.0029 1.255,0.0084l5.969,0c-0.012,-0.2026 -0.026,-0.3991 -0.042,-0.5891l-0.001,0c-0.045,-0.5236 -0.107,-0.9666 -0.182,-1.3279l0,-0.0024c-0.07,-0.3326 -0.169,-0.6197 -0.297,-0.8598c-0.116,-0.218 -0.258,-0.3958 -0.423,-0.5327c-0.171,-0.1417 -0.388,-0.2612 -0.651,-0.3569c-0.29,-0.1059 -0.627,-0.1839 -1.01,-0.2324l0,0.002c-0.44,-0.0527 -0.944,-0.0936 -1.508,-0.1195c-1.86,-0.0872 -3.908,-0.0751 -5.756,0.0694l-0.005,0c-0.444,0.0321 -0.822,0.0784 -1.134,0.137c-0.296,0.0553 -0.53,0.1212 -0.7,0.1953c-0.138,0.0594 -0.247,0.1287 -0.324,0.205c-0.06,0.0596 -0.101,0.1262 -0.123,0.1977l0,0.0048c-0.043,0.1369 -0.076,0.3007 -0.099,0.4898c-0.023,0.1972 -0.035,0.4241 -0.035,0.679l0,0.6342l-4.264,0l0,-0.6342c0,-0.5832 0.041,-1.119 0.123,-1.6066c0.085,-0.5012 0.215,-0.9468 0.392,-1.3352l0.001,0.0001c0.186,-0.4104 0.438,-0.7711 0.752,-1.081c0.311,-0.3069 0.683,-0.5632 1.112,-0.7701l0.005,-0.0023c0.412,-0.1935 0.893,-0.355 1.442,-0.4829c0.522,-0.1213 1.121,-0.2147 1.794,-0.2785c0.65,-0.06421 1.387,-0.11269 2.209,-0.14489c1.841,-0.07092 3.741,-0.09228 5.577,0.05416c0.869,0.06973 1.641,0.17533 2.312,0.31583l0,0.0006c0.695,0.1423 1.309,0.3457 1.841,0.6078c0.557,0.2748 1.03,0.6144 1.417,1.016l0,0.0004c0.383,0.3949 0.702,0.8669 0.956,1.4118c0.248,0.5309 0.435,1.1363 0.562,1.813c0.122,0.6486 0.214,1.384 0.273,2.2025c0.06,0.826 0.09,1.7325 0.09,2.7182l0,4.2061c0,1.5085 -0.495,2.8822 -1.48,3.859l-0.002,0.0023c-0.901,0.8919 -2.192,1.439 -3.867,1.439c-0.821,0 -1.575,0.0126 -2.416,0.0263c-2.999,0.0489 -6.945,0.113 -9.017,-0.2153zm9.476,-3.5378c1.138,-0.0452 1.968,-0.1039 2.437,-0.4087c0.408,-0.2649 0.606,-0.8231 0.606,-1.9211l0,-2.1863c-3.027,0 -6.087,-0.0494 -9.114,-0.0029c-0.864,0.0131 -2.442,0.0336 -3.228,0.3762c-0.116,0.0382 -0.276,0.144 -0.363,0.2304c-0.079,0.0795 -0.142,0.1791 -0.184,0.2967l-0.002,0.0024c-0.249,0.6762 -0.26,2.1098 -0.003,2.7858l0,0.0023c0.04,0.1071 0.101,0.2 0.182,0.2775c0.089,0.0862 0.209,0.16 0.357,0.2213c1.012,0.4746 4.457,0.4044 5.522,0.4025c1.265,-0.0021 2.543,-0.0329 3.79,-0.0757l0,-0.0004z"/>
  <path id="svg_6" fill="#f2f2f2" d="m166.45,29.1899c-0.936,0 -1.783,-0.0476 -2.541,-0.142c-0.768,-0.0956 -1.452,-0.2426 -2.049,-0.4397l-0.003,0c-0.623,-0.2057 -1.164,-0.4957 -1.622,-0.8689c-0.463,-0.3772 -0.839,-0.8374 -1.124,-1.3787c-0.275,-0.5224 -0.481,-1.1412 -0.616,-1.8566c-0.131,-0.6979 -0.197,-1.4842 -0.197,-2.359l0,-16.62165l4.264,0l0,4.64865l7.47,0l0,3.7032l-7.47,0l0,8.2698c0,1.0797 0.092,1.8639 0.275,2.3513c0.069,0.1824 0.17,0.331 0.303,0.4451c0.139,0.1204 0.325,0.2117 0.555,0.2732l0.005,0.0024c0.289,0.0799 0.656,0.1392 1.1,0.1787c0.447,0.0399 0.998,0.0593 1.65,0.0593c0.598,0 1.099,-0.008 1.501,-0.0236c0.44,-0.0171 0.823,-0.0431 1.146,-0.0763l0,0.0005l0.088,-0.0111l-0.001,-0.0018l0.848,-0.1285l0,3.7636l-0.567,0.0648c-0.42,0.0476 -0.889,0.0844 -1.406,0.1089c-0.525,0.0253 -1.062,0.0384 -1.609,0.0384z"/>
  <path id="svg_7" fill="#f2f2f2" d="m41.4297,29.1898l10.5342,-22.85917c0.1575,-0.34145 0.4812,-0.54747 0.8603,-0.54747l5.79,0c0.3788,0 0.7024,0.2064 0.8599,0.54747l10.5346,22.85917l-4.6388,0l-1.9055,-4.1348c-0.232,-0.5042 -0.7103,-0.8085 -1.2693,-0.8085l-12.9513,0c-0.5591,0 -1.0375,0.3043 -1.2694,0.8085l-1.9055,4.1348l-4.6392,0zm8.8602,-9.1988l10.859,0l-4.6565,-10.11599l-1.5463,0l-4.6562,10.11599z"/>
  <path id="svg_8" fill="#0DEF93" d="m20.2843,27.3711l0,4.3554l0,8.7735c1.9855,-1.5198 3.7446,-3.023 5.3084,-4.6496c1.6374,-1.7037 3.0619,-3.5431 4.3073,-5.6811l0,-0.0006l6.6715,-11.4478l0.0001,0.0008c0.3396,-0.5834 0.5101,-1.21 0.5101,-1.8354c0,-0.6255 -0.1705,-1.2521 -0.5101,-1.8353l-0.0001,0.0002l-7.4122,-12.71648c-0.3409,-0.58486 -0.8028,-1.04411 -1.3489,-1.35591l-0.0008,0c-0.5451,-0.31179 -1.1776,-0.47881 -1.8591,-0.47881l-5.6662,0l0,4.36542l0,1.53148l3.133,0c0.3888,0 0.7525,0.09645 1.0676,0.27671c0.3136,0.1794 0.58,0.44387 0.7744,0.77852l4.8834,8.37937c0.1956,0.3351 0.2939,0.6958 0.2939,1.0551c0,0.3594 -0.0983,0.7206 -0.2939,1.0551l-3.4868,5.9842l-4.0189,0l4.102,-7.0393c-1.3666,-2.3449 -2.7281,-4.6935 -4.0986,-7.03305l-2.3561,0l0,14.07235l0,3.4452zm-3.4897,-17.51755l0,-3.45665l0,-2.06093l0,-3.83597l-5.6663,0c-0.6819,0 -1.31427,0.16651 -1.85941,0.47881l-0.00074,0c-0.54639,0.31218 -1.00831,0.7717 -1.34841,1.3553l0,0.00099l-7.41002,12.7145c-0.33996,0.583 -0.50972,1.2092 -0.50972,1.8341c0,0.6259 0.17076,1.2518 0.51047,1.8348l0,0.001l7.4005,12.6998l0.00039,-0.0004c0.3388,0.5821 0.79929,1.0401 1.34239,1.3527c0.54435,0.3125 1.17445,0.4808 1.85105,0.483l0.0009,0l1.9569,0.0087c1.1612,0.0052 2.3236,0.0106 3.732,0.0112l0,-2.0776l0,-3.8258l-3.1391,0c-0.3888,0 -0.7525,-0.0963 -1.0676,-0.2767c-0.3133,-0.1794 -0.579,-0.4429 -0.7736,-0.7768l-4.88197,-8.3787c-0.19506,-0.3347 -0.29268,-0.6945 -0.29268,-1.0536c0,-0.359 0.09762,-0.7187 0.29268,-1.054l3.48147,-5.97775l4.0197,0l-4.1,7.03275l4.1025,7.0396l0.7979,0l1.5607,0l0,-14.07235z" clip-rule="evenodd" fill-rule="evenodd"/>
 </g>
</svg>